<svg fill="none"
    xmlns="http://www.w3.org/2000/svg" viewBox="0 0 24 24">
    <path d="M14 14h-4v7h4z" fill="#C4A484"/>
    <path d="m20.4 10.2-7.7-7.9a1 1 0 0 0-1.4 0l-7.7 7.9a2 2 0 0 0-.6 1.4V20a2 2 0 0 0 1.9 2H8v-9a1 1 0 0 1 1-1h6a1 1 0 0 1 1 1v9h3.1a2 2 0 0 0 1.9-2v-8.4q0-.8-.6-1.4" fill="#654321"/>
    <path d="m20.4 10.2-7.7-7.9a1 1 0 0 0-1.4 0l-7.7 7.9a2 2 0 0 0-.6 1.4V20a2 2 0 0 0 1.9 2H8v-9a1 1 0 0 1 1-1h6a1 1 0 0 1 1 1v9h3.1a2 2 0 0 0 1.9-2v-8.4q0-.8-.6-1.4" fill="#654321"/>
</svg>
