<svg fill="none" xmlns="http://www.w3.org/2000/svg" viewBox="0 0 30 30"><g clip-path="url(#a)"><path d="M22.62 13.48a1.17 1.17 0 1 0 0-2.35 1.17 1.17 0 0 0 0 2.35" fill="#818CF8"/><path d="M25.31 2.34H23.8V1.17a1.17 1.17 0 0 0-2.34 0v1.17H16.1V1.17a1.17 1.17 0 0 0-2.34 0v1.17H8.5V1.17a1.17 1.17 0 1 0-2.35 0v1.17H4.7A4.7 4.7 0 0 0 0 7.04V25.3A4.7 4.7 0 0 0 4.69 30h8.96a1.17 1.17 0 1 0 0-2.34H4.7a2.35 2.35 0 0 1-2.35-2.35V7.03c0-1.3 1.06-2.34 2.35-2.34h1.46v1.17a1.17 1.17 0 1 0 2.35 0V4.69h5.27v1.17a1.17 1.17 0 0 0 2.34 0V4.69h5.34v1.17a1.17 1.17 0 0 0 2.34 0V4.69h1.52c1.3 0 2.35 1.05 2.35 2.34v6.68a1.17 1.17 0 1 0 2.34 0V7.03a4.7 4.7 0 0 0-4.69-4.69" fill="#3730A3"/><path d="M22.41 15.41a7.1 7.1 0 1 0 .02 14.2 7.1 7.1 0 0 0-.02-14.2" fill="#6366F1"/><path d="M23.87 21.4h-.53v-1.23a1.17 1.17 0 1 0-2.34 0v2.4c0 .65.52 1.18 1.17 1.18h1.7a1.17 1.17 0 0 0 0-2.35" fill="#fff"/><path d="M17.52 13.48a1.17 1.17 0 1 0 0-2.35 1.17 1.17 0 0 0 0 2.35m-5.1 5.09a1.17 1.17 0 1 0 0-2.34 1.17 1.17 0 0 0 0 2.34m-5.1-5.09a1.17 1.17 0 1 0 0-2.35 1.17 1.17 0 0 0 0 2.35m0 5.09a1.17 1.17 0 1 0 0-2.34 1.17 1.17 0 0 0 0 2.34m0 5.1a1.17 1.17 0 1 0 0-2.34 1.17 1.17 0 0 0 0 2.34m5.1 0a1.17 1.17 0 1 0 0-2.34 1.17 1.17 0 0 0 0 2.34m0-10.19a1.17 1.17 0 1 0 0-2.35 1.17 1.17 0 0 0 0 2.35" fill="#818CF8"/></g><defs><clipPath id="a"><path fill="#fff" d="M0 0h30v30H0z"/></clipPath></defs></svg>