<svg fill="none" xmlns="http://www.w3.org/2000/svg" viewBox="0 0 30 30"><g clip-path="url(#a)"><path d="M27.349 14.224v-9.17a.9.9 0 0 0-.094-.38c.034-.093.094-.176.094-.28a.88.88 0 0 0-.638-.845L14.406.033a.9.9 0 0 0-.482 0L1.619 3.55a.88.88 0 0 0 0 1.691l4.636 1.324v1.04c0 1 .555 1.92 1.414 2.342 3.94 1.936 9.05 1.936 12.992.001.859-.422 1.414-1.342 1.414-2.342v-1.04l3.516-1.005v8.664a2.63 2.63 0 0 0-1.758 2.475v1.758c0 .486.393.879.879.879h3.516a.88.88 0 0 0 .878-.879V16.7c0-1.144-.737-2.11-1.757-2.475" fill="#4F46E5"/><path d="M21.347 11.642c-2.21 1.085-4.723 1.659-7.27 1.659s-5.061-.574-7.271-1.66c-.216-.106-.395-.264-.587-.404.188 3.164 1.89 5.848 4.295 7.223 0 0 1.234.583 1.62.693l.001-.003c.624.178 1.267.303 1.942.303a7.2 7.2 0 0 0 2.378-.448c.405-.144 1.182-.543 1.182-.543 2.407-1.375 4.11-4.06 4.298-7.224-.192.14-.371.297-.588.404" fill="#6366F1"/><path d="M14.077 21.211c-.708 0-1.39-.11-2.055-.27l2.055 3.082 2.043-3.079a8.7 8.7 0 0 1-2.043.267" fill="#818CF8"/><path d="m19.136 19.635-.048.028-.74 1.108c0 .041-3.37 5.082-3.392 5.116V30h11.426a.88.88 0 0 0 .879-.879c0-4.8-3.533-8.74-8.125-9.486m1.972 6.85h-1.757a.878.878 0 1 1 0-1.758h1.757a.878.878 0 1 1 0 1.757M9.05 19.652l-.044-.025C4.419 20.379.894 24.324.894 29.12c0 .486.393.879.878.879h11.426v-4.113c-3.983-5.985-3.17-4.764-4.148-6.235" fill="#4F46E5"/></g><defs><clipPath id="a"><path fill="#fff" d="M0 0h30v30H0z"/></clipPath></defs></svg>