<svg fill="none" xmlns="http://www.w3.org/2000/svg" viewBox="0 0 30 30"><path d="M14.06 10H7.2A2.2 2.2 0 0 0 5 12.19v6.87c0 1.2.98 2.19 2.19 2.19h6.87a2.2 2.2 0 0 0 2.19-2.19V12.2a2.2 2.2 0 0 0-2.19-2.19M7.2 11.88h6.87a.3.3 0 0 1 .31.3v3.24c-.9-.61-2.26-.48-2.95.4l-.65.82c-.2.25-.4.09-.47.02a2.2 2.2 0 0 0-3.1 0l-.33.33v-4.8c0-.17.14-.31.32-.31" fill="#818CF8"/><path d="M26.25 1.25H3.75A3.75 3.75 0 0 0 0 5v20a3.75 3.75 0 0 0 3.75 3.75h22.5A3.75 3.75 0 0 0 30 25V5a3.75 3.75 0 0 0-3.75-3.75m0 25H3.75c-.69 0-1.25-.56-1.25-1.25V7.5h25V25c0 .69-.56 1.25-1.25 1.25" fill="#3730A3"/><path d="M23.75 15h-5a1.25 1.25 0 0 1 0-2.5h5a1.25 1.25 0 0 1 0 2.5m0 5h-5a1.25 1.25 0 0 1 0-2.5h5a1.25 1.25 0 0 1 0 2.5m0 5H6.25a1.25 1.25 0 0 1 0-2.5h17.5a1.25 1.25 0 0 1 0 2.5" fill="#818CF8"/></svg>