<svg fill="none" xmlns="http://www.w3.org/2000/svg" viewBox="0 0 30 30"><path d="M2.03 22.33v4.87c0 .3.24.54.55.54h3.76c.3 0 .54-.24.54-.54v-8.56l-2.73 2.73a3.3 3.3 0 0 1-2.12.96" fill="#6366F1"/><path d="M8.75 18.58v8.62c0 .3.24.54.54.54h3.76c.3 0 .55-.24.55-.54v-5.08a3.3 3.3 0 0 1-2.27-.96z" fill="#4F46E5"/><path d="M15.47 21.59v5.6c0 .3.24.55.54.55h3.76c.3 0 .54-.24.54-.54V16.85l-4.3 4.3q-.25.26-.54.44" fill="#818CF8"/><path d="m26.67 10.49-4.48 4.48V27.2c0 .3.24.54.54.54h3.76c.3 0 .54-.24.54-.54V10.83l-.28-.26z" fill="#3730A3"/><path d="M29.74 2.55q-.27-.3-.79-.29h-.1l-5.24.25c-.24 0-.56.02-.81.27a1 1 0 0 0-.2.29c-.25.56.11.92.28 1.1l.44.44.92.92L13.66 16.1l-4.75-4.75a1.5 1.5 0 0 0-2.14 0L.44 17.68c-.59.6-.59 1.55 0 2.14l.29.28a1.5 1.5 0 0 0 2.14 0l4.97-4.97 4.75 4.75a1.5 1.5 0 0 0 2.15 0L26.67 7.95l1.35 1.34c.16.16.38.38.72.38a1 1 0 0 0 .43-.11q.15-.09.26-.2c.27-.26.31-.6.33-.86l.16-3.41.08-1.7q.04-.55-.26-.84" fill="#6366F1"/></svg>