<svg fill="none" xmlns="http://www.w3.org/2000/svg" viewBox="0 0 30 30"><path d="M12.19 24.38a5.3 5.3 0 0 1-5.31-5.32V6.25h-2.2a3.44 3.44 0 0 0-3.43 3.44v16.87c0 1.9 1.54 3.44 3.44 3.44H20.3c1.9 0 3.44-1.54 3.44-3.44v-2.18z" fill="#818CF8"/><path fill-rule="evenodd" clip-rule="evenodd" d="M25.56 0C27.46 0 29 1.54 29 3.44v15.62c0 1.9-1.54 3.44-3.44 3.44H12.44A3.44 3.44 0 0 1 9 19.06V3.44C9 1.54 10.54 0 12.44 0zM13 4.25a1 1 0 1 0 0 2h12a1 1 0 1 0 0-2zm-1 7a1 1 0 0 1 1-1h12a1 1 0 1 1 0 2H13a1 1 0 0 1-1-1m1 5a1 1 0 1 0 0 2h12a1 1 0 1 0 0-2z" fill="#3730A3"/></svg>