<svg fill="none" xmlns="http://www.w3.org/2000/svg" viewBox="0 0 30 30"><g clip-path="url(#a)"><path d="m29.718 9.364-6.165 5.944-1.265-1.34 4.666-4.5a1.134 1.134 0 0 0 .028-1.604l-4.165-4.32a1.13 1.13 0 0 0-.797-.346 1.13 1.13 0 0 0-.808.317L17.534 7.06l3.193 3.306c.261.274.24.724-.033.99a.74.74 0 0 1-.711.164l-2.316-2.456L15.35 6.61 21.41.76a.934.934 0 0 1 1.311.036l7.006 7.261a.93.93 0 0 1-.01 1.308M8.788 26.988a1.12 1.12 0 0 1-.806.316 1.15 1.15 0 0 1-.798-.344L3.02 22.638a1.13 1.13 0 0 1 .028-1.602l1.916 1.99a.69.69 0 0 0 .97.02.68.68 0 0 0 .015-.967l-1.913-1.993.51-.493 1.915 1.99a.69.69 0 0 0 .971.02.686.686 0 0 0 .014-.971L5.53 18.644l.511-.493 1.914 1.989a.69.69 0 0 0 .97.02.683.683 0 0 0 .018-.97L7.027 17.2l.51-.492 1.916 1.986a.684.684 0 0 0 1.164-.328l-3.546-3.765-6.787 6.54a.933.933 0 0 0-.012 1.308l7.005 7.266a.927.927 0 0 0 1.307.03l6.686-6.444-1.264-1.34zM21.03 9.134a2.302 2.302 0 1 1 3.312-3.198 2.302 2.302 0 0 1-3.312 3.198m.989-.954a.934.934 0 0 0 1.313.022.928.928 0 0 0-1.29-1.335.93.93 0 0 0-.023 1.313m3.72 11.796-6.029 5.68L6.273 11.4l6.03-5.68zM13.315 9.695a.52.52 0 0 0-.143-.371l-.656-.695a.52.52 0 0 0-.732-.021l-.356.334a.52.52 0 0 0-.023.732l.653.699c.097.1.226.16.365.162.137.005.728-.476.728-.476a.53.53 0 0 0 .164-.364m9.334 10.443a.516.516 0 0 0 .02-.734l-1.887-2.002-1.887-2.002-3.774-4.004a.52.52 0 0 0-.733-.024l-.357.337a.517.517 0 0 0-.021.732l7.547 8.009a.52.52 0 0 0 .739.023zM5.663 10.75l6.029-5.682-1.557-1.652L4.107 9.1zM1.419 6.246a1.79 1.79 0 0 1 .075-2.535L4.91.49a1.79 1.79 0 0 1 2.534.074L9.563 2.81 3.534 8.49zm1.076-1.237 1.107 1.177 3.654-3.443-1.11-1.175zm26.302 23.083a.89.89 0 0 1-1.168 1.101l-7.156-2.73 6.022-5.683zm-1.912-2.454-.905-2.875-3.502 3.302 2.817 1.075z" fill="#3b1ea2"/><path fill-rule="evenodd" clip-rule="evenodd" d="M29.717 9.356 23.552 15.3l-1.265-1.341 4.666-4.5a1.134 1.134 0 0 0 .028-1.604l-4.165-4.32a1.13 1.13 0 0 0-.798-.345 1.13 1.13 0 0 0-.808.317l-3.677 3.544 3.193 3.307c.261.273.24.723-.033.99a.72.72 0 0 1-.711.163l-2.316-2.456L15.35 6.6 21.41.75a.934.934 0 0 1 1.311.036l7.006 7.261a.93.93 0 0 1-.01 1.308m-8.689-.23a2.302 2.302 0 1 1 3.312-3.198 2.302 2.302 0 0 1-3.312 3.198m1.647-.676a.925.925 0 1 0 0-1.85.925.925 0 0 0 0 1.85" fill="#6366F1"/></g><path d="M7.973 27.302c.3.008.59-.107.806-.316l5.217-5.026 1.264 1.34-6.686 6.445a.927.927 0 0 1-1.307-.03L.262 22.447a.933.933 0 0 1 .012-1.308l6.787-6.54 3.546 3.765a.683.683 0 0 1-1.164.328l-1.916-1.986-.51.493 1.916 1.988a.683.683 0 0 1-.017.97.69.69 0 0 1-.97-.02L6.03 18.149l-.51.493 1.914 1.988a.686.686 0 0 1-.014.971.69.69 0 0 1-.97-.02l-1.916-1.99-.51.493 1.913 1.993a.68.68 0 0 1-.014.968.69.69 0 0 1-.971-.02l-1.916-1.99a1.13 1.13 0 0 0-.028 1.601l4.165 4.322c.21.215.497.338.799.344" fill="#6366F1"/><defs><clipPath id="a"><path fill="#fff" d="M0 0h30v30.001H0z"/></clipPath></defs></svg>