<svg fill="none" xmlns="http://www.w3.org/2000/svg" viewBox="0 0 30 30"><path d="M6 7.5H1.17C.62 7.5.06 7.98.14 8.76l2.34 14.99s2.77-11.04 3.31-13.7C5.96 9.25 6.71 9 7.26 9H15s-1.05-3.12-1.15-3.46c-.19-.66-.51-1.04-1.17-1.04H7.7c-.54 0-1.05.34-1.2.96-.12.6-.5 2.04-.5 2.04m7.32 0h-6S7.95 6 8.62 6h3.2c.72 0 1.5 1.5 1.5 1.5M4.01 24.38a2.3 2.3 0 0 1-1.9 1.12h23.6c.81 0 1.38-.46 1.54-1.25l2.52-12.65c.11-.75-.45-1.1-.93-1.1H24V8.3c0-.25-.39-.8-.99-.8h-5.64c-.78 0-1.3.87-1.3.87L15 10.5H8.39c-.48 0-.95.29-1.04.75 0 0-2.38 10.05-2.58 11-.1.55-.33 1.48-.76 2.13M23.07 10.5H16.5S17.37 9 18.2 9h3.43c1.07 0 1.44 1.5 1.44 1.5" fill="#6366F1"/><path fill-rule="evenodd" clip-rule="evenodd" d="M1.17 7.5H6s.38-1.44.51-2.04c.15-.62.66-.96 1.2-.96h4.96c.66 0 1 .38 1.17 1.04C13.94 5.88 15 9 15 9H7.26c-.56 0-1.3.26-1.47 1.05a643 643 0 0 1-3.32 13.69L.14 8.76C.06 7.98.6 7.5 1.17 7.5m6.15 0h6S12.54 6 11.82 6h-3.2c-.67 0-1.3 1.5-1.3 1.5" fill="#D6D1D5"/><path fill-rule="evenodd" clip-rule="evenodd" d="M1.17 7.5H6s.38-1.44.51-2.04c.15-.62.66-.96 1.2-.96h4.96c.66 0 1 .38 1.17 1.04C13.94 5.88 15 9 15 9H7.26c-.56 0-1.3.26-1.47 1.05a643 643 0 0 1-3.32 13.69L.14 8.76C.06 7.98.6 7.5 1.17 7.5m6.15 0h6S12.54 6 11.82 6h-3.2c-.67 0-1.3 1.5-1.3 1.5" fill="#6366F1"/></svg>