<svg width="30" height="30" viewBox="0 0 30 30" fill="none"
    xmlns="http://www.w3.org/2000/svg">
    <path d="M22.3889 14.4012C22.3889 16.3951 21.5988 18.2037 20.3148 19.5309C19.3395 20.5432 18.7099 21.8333 18.5 23.2099C18.4074 23.8025 17.8951 24.2408 17.2902 24.2408H12.7037C12.105 24.2408 11.5864 23.8087 11.5 23.2161C11.284 21.8395 10.6482 20.5309 9.67287 19.5247C8.41361 18.2161 7.62966 16.4383 7.61114 14.4815C7.56793 10.3704 10.8395 7.04322 14.9506 7.01236C19.0556 6.9815 22.3889 10.3025 22.3889 14.4012ZM15.8334 9.92594C15.8334 9.46915 15.463 9.09261 15 9.09261C12.0618 9.09261 9.6667 11.4815 9.6667 14.4259C9.6667 14.8827 10.0371 15.2593 10.5 15.2593C10.9568 15.2593 11.3334 14.8889 11.3334 14.4259C11.3334 12.4012 12.9815 10.7593 15 10.7593C15.463 10.7593 15.8334 10.3889 15.8334 9.92594Z" fill="#6366F1"/>
    <path d="M15.8334 3.75309C15.8334 4.21605 15.4568 4.58642 15 4.58642C14.5433 4.58642 14.1667 4.21605 14.1667 3.75309V0.833333C14.1667 0.37037 14.5371 0 15 0C15.463 0 15.8334 0.376543 15.8334 0.833333V3.75309Z" fill="#6366F1"/>
    <path d="M4.35807 13.5617C4.82103 13.5617 5.1914 13.9383 5.1914 14.3951C5.1914 14.858 4.82103 15.2284 4.35807 15.2284H1.43831C0.975351 15.2284 0.60498 14.8519 0.60498 14.3951C0.60498 13.9321 0.981524 13.5617 1.43831 13.5617H4.35807Z" fill="#818CF8"/>
    <path d="M25.642 13.5617H28.5618C29.0247 13.5617 29.3951 13.9383 29.3951 14.3951C29.3951 14.858 29.0186 15.2284 28.5618 15.2284H25.642C25.1791 15.2284 24.8087 14.8519 24.8087 14.3951C24.8087 13.9321 25.1852 13.5617 25.642 13.5617Z" fill="#818CF8"/>
    <path d="M4.82103 23.4012L6.88893 21.3333C7.20992 21.0062 7.74078 21.0062 8.06177 21.3333C8.38893 21.6605 8.38893 22.1852 8.06177 22.5123L5.99387 24.5802C5.83337 24.7407 5.61733 24.821 5.40745 24.821C5.19757 24.821 4.98152 24.7407 4.82103 24.5802C4.49387 24.2531 4.49387 23.7284 4.82103 23.4012Z" fill="#6366F1"/>
    <path d="M23.1112 7.46296C22.9507 7.62346 22.7346 7.7037 22.5247 7.7037C22.3087 7.7037 22.0988 7.62346 21.9321 7.46296C21.605 7.1358 21.605 6.61111 21.9321 6.28395L24 4.21605C24.3272 3.88889 24.8519 3.88889 25.1791 4.21605C25.5062 4.54321 25.5062 5.0679 25.1791 5.39506L23.1112 7.46296Z" fill="#6366F1"/>
    <path d="M7.47535 7.69753C7.26547 7.69753 7.04942 7.61728 6.88893 7.45679L4.81486 5.38889C4.4877 5.06173 4.4877 4.53704 4.81486 4.20988C5.14202 3.88272 5.66671 3.88272 5.99387 4.20988L8.06177 6.27778C8.38893 6.60494 8.38893 7.12963 8.06177 7.45679C7.90128 7.61728 7.68523 7.69753 7.47535 7.69753Z" fill="#6366F1"/>
    <path d="M21.9321 21.3333C22.2593 21.0062 22.784 21.0062 23.1112 21.3333L25.1729 23.4012C25.5 23.7284 25.5 24.2531 25.1729 24.5802C25.0124 24.7407 24.7963 24.821 24.5865 24.821C24.3766 24.821 24.1605 24.7407 24 24.5802L21.9321 22.5123C21.605 22.1852 21.605 21.6605 21.9321 21.3333Z" fill="#6366F1"/>
    <path d="M18.4198 26.7284V25.8519C18.4198 25.3827 18.0432 25.0062 17.5741 25H12.4198C11.9506 25 11.5741 25.3765 11.5741 25.8457V26.7222C11.5741 27.4259 12.0864 28 12.7593 28.1049L12.9692 28.9012C13.0864 29.3333 13.4753 29.6358 13.9259 29.6358H16.0679C16.5185 29.6358 16.9074 29.3333 17.0247 28.9012L17.2408 28.1049C17.9074 28.0062 18.4198 27.4259 18.4198 26.7284Z" fill="#6366F1"/>
    <path d="M18.4198 26.7284V25.8519C18.4198 25.3827 18.0432 25.0062 17.5741 25H12.4198C11.9506 25 11.5741 25.3765 11.5741 25.8457V26.7222C11.5741 27.4259 12.0864 28 12.7593 28.1049L12.9692 28.9012C13.0864 29.3333 13.4753 29.6358 13.9259 29.6358H16.0679C16.5185 29.6358 16.9074 29.3333 17.0247 28.9012L17.2408 28.1049C17.9074 28.0062 18.4198 27.4259 18.4198 26.7284Z" fill="#3730A3"/>
    <defs>
        <clipPath id="clip0_116_360">
            <rect width="30" height="30" fill="white"/>
        </clipPath>
    </defs>

</svg>
