<svg fill="none" xmlns="http://www.w3.org/2000/svg" viewBox="0 0 30 30"><path d="m17.96 23.47-2.63 1.08a1 1 0 0 1-.66 0l-2.63-1.08H0v3.38c0 .49.4.88.88.88h28.24c.49 0 .88-.4.88-.88v-3.38z" fill="#6366F1"/><path d="M12.21 21.71q.18 0 .34.07l1.57.65V2.9c-.6-.4-1.33-.63-2.1-.63H.87c-.49 0-.88.4-.88.88V21.7zm-2.16-7.39H4.08a.88.88 0 0 1 0-1.76h5.97a.88.88 0 0 1 0 1.76m.87 2.9c0 .49-.39.88-.87.88H4.08a.88.88 0 0 1 0-1.76h5.97c.48 0 .87.4.87.88m-.87-6.68H4.08a.88.88 0 0 1 0-1.76h5.97a.88.88 0 0 1 0 1.76" fill="#4F46E5"/><path d="M15.88 22.36v.07l1.57-.65q.16-.07.34-.07H30V3.15c0-.49-.4-.88-.88-.88H18q-1.18.02-2.11.63zm9.76-8.04h-5.97a.88.88 0 1 1 0-1.76h5.97a.88.88 0 1 1 0 1.76m.88 2.9c0 .49-.4.88-.88.88h-5.97a.88.88 0 1 1 0-1.76h5.97c.48 0 .88.4.88.88m-.88-6.68h-5.97a.88.88 0 1 1 0-1.76h5.97a.88.88 0 1 1 0 1.76" fill="#818CF8"/></svg>