<svg fill="none" xmlns="http://www.w3.org/2000/svg" viewBox="0 0 30 30"><g clip-path="url(#a)"><path d="M4.993 15.267a.883.883 0 0 1 1.192.369l3.504 6.65c.306-.108.634-.167.976-.167h2.327a4.31 4.31 0 0 1 4.302-4.28h1.55a3.8 3.8 0 0 1-.598-2.046v-1.718a3.815 3.815 0 0 1 3.87-3.811c2.092.031 3.753 1.777 3.753 3.869v1.66c0 .752-.22 1.455-.598 2.046h2.192q.42 0 .816.079V4.695H1.721v18.822c0 .325.263.588.588.588h5.579q.137-.399.376-.738l-3.64-6.909a.88.88 0 0 1 .369-1.191M6.15 7.144h9.043a.882.882 0 1 1 0 1.765H6.151a.883.883 0 0 1 0-1.765m0 4.113h9.043a.883.883 0 0 1 0 1.765H6.151a.883.883 0 0 1 0-1.765" fill="#4F46E5"/><path d="M27.463 19.604H17.294a2.54 2.54 0 0 0-2.537 2.54v.857a.88.88 0 0 1-.883.883h-3.21a1.172 1.172 0 0 0 0 2.344h5.327a.93.93 0 0 0 .928-.93v-1.33c0-.474.366-.883.84-.905a.88.88 0 0 1 .924.881v5.468c0 .325.264.588.589.588h6.16v-6.031c0-.476.365-.884.84-.906a.88.88 0 0 1 .924.881V30h2.216a.59.59 0 0 0 .588-.588v-7.268c0-1.402-1.14-2.54-2.537-2.54m-7.452-5.529v1.718c0 1.128.918 2.046 2.047 2.046a2.05 2.05 0 0 0 2.046-2.046v-1.718a2.05 2.05 0 0 0-2.046-2.047 2.05 2.05 0 0 0-2.047 2.047" fill="#6366F1"/><path d="M0 .588v1.754c0 .325.263.588.588.588h28.824A.59.59 0 0 0 30 2.342V.588A.59.59 0 0 0 29.412 0H.588A.59.59 0 0 0 0 .588" fill="#4F46E5"/></g><defs><clipPath id="a"><path fill="#fff" d="M0 0h30v30H0z"/></clipPath></defs></svg>