<svg fill="none" xmlns="http://www.w3.org/2000/svg" viewBox="0 0 30 30"><path d="M21.199 8.73C22.78 5.165 23.259 4.137 25.07 0h-2.537l-3.446 7.755a12.3 12.3 0 0 1 2.11.975" fill="#6366F1"/><path d="M15 7.059c.809 0 1.6.078 2.365.227L20.603 0h-2.59l-3.017 6.829L11.973 0H9.397l3.238 7.286q1.15-.225 2.365-.227" fill="#818CF8"/><path d="M10.912 7.755 7.466 0H4.908l3.89 8.733a12 12 0 0 1 2.114-.978" fill="#3730A3"/><path d="M15 8.823c-5.838 0-10.588 4.75-10.588 10.589C4.412 25.25 9.162 30 15 30s10.588-4.75 10.588-10.588c0-5.839-4.75-10.589-10.588-10.589m-3.394 15.433.648-3.78L9.508 17.8l3.795-.552L15 13.81l1.697 3.438 3.795.552-2.746 2.677.648 3.779L15 22.472zM15 20.478l1.05.552-.2-1.17.85-.828-1.175-.17L15 17.797l-.525 1.064-1.174.171.85.828-.201 1.17z" fill="#6366F1"/></svg>