<svg fill="none" xmlns="http://www.w3.org/2000/svg" viewBox="0 0 24 24"><path d="M12 2.4q.2 0 .38.02a6.6 6.6 0 0 0-1.3 9.55l-.88.88v2.03a.7.7 0 0 1-.72.72H7.2v1.68a.7.7 0 0 1-.72.72H3.12a.7.7 0 0 1-.72-.72v-3.43q0-.3.21-.51L7.4 8.56A4.8 4.8 0 0 1 12 2.4" fill="#6366F1"/><path d="M10.8 7.8a5.4 5.4 0 1 1 8.4 4.49v2.46l.94.94a.7.7 0 0 1 0 1.02L18.84 18l1.29 1.28a.72.72 0 0 1-.06 1.07l-2.82 2.26a.7.7 0 0 1-.9 0l-2.88-2.3a.7.7 0 0 1-.27-.57V12.3a5.4 5.4 0 0 1-2.4-4.49m6.3-1.2a.9.9 0 1 0-1.8 0 .9.9 0 0 0 1.8 0" fill="#3730A3"/></svg>