<svg fill="none"
    xmlns="http://www.w3.org/2000/svg" viewBox="0 0 24 24">
    <path d="M6.125 3a3.13 3.13 0 0 0-3.03 2.36A2 2 0 1 1 3 9.105v8.77A3.125 3.125 0 0 0 6.125 21h5.897A6.47 6.47 0 0 1 11 17.5a6.46 6.46 0 0 1 .87-3.25H8.625a.625.625 0 1 1 0-1.25h4.185a6.48 6.48 0 0 1 4.69-2 6.47 6.47 0 0 1 3.5 1.022V6.125A3.125 3.125 0 0 0 17.875 3zM8 10.125c0-.345.28-.625.625-.625h6.75a.625.625 0 0 1 0 1.25h-6.75A.625.625 0 0 1 8 10.125" fill="#D6D1D5"/>
    <path d="M3.75 6a1.248 1.248 0 0 0-1.155 1.729 1.248 1.248 0 0 0 2.039.405A1.25 1.25 0 0 0 3.75 6M23 17.5a5.5 5.5 0 1 1-11 0 5.5 5.5 0 0 1 11 0M18 14a.5.5 0 0 0-1 0v3h-3a.5.5 0 0 0 0 1h3v3a.5.5 0 0 0 1 0v-3h3a.5.5 0 0 0 0-1h-3z" fill="#D6D1D5"/>
</svg>