<svg fill="none" xmlns="http://www.w3.org/2000/svg" viewBox="0 0 21 20"><path d="M4.125 0a3.126 3.126 0 0 0-3.03 2.36A2 2 0 1 1 1 6.105v8.77A3.125 3.125 0 0 0 4.125 18h5.897A6.47 6.47 0 0 1 9 14.5a6.46 6.46 0 0 1 .87-3.25H6.625a.625.625 0 1 1 0-1.25h4.185a6.48 6.48 0 0 1 4.69-2A6.47 6.47 0 0 1 19 9.022V3.125A3.125 3.125 0 0 0 15.875 0zM6 7.125c0-.345.28-.625.625-.625h6.75a.625.625 0 0 1 0 1.25h-6.75A.625.625 0 0 1 6 7.125" fill="#4F46E5"/><path d="M1.75 3A1.248 1.248 0 0 0 .595 4.729a1.248 1.248 0 0 0 2.039.405A1.25 1.25 0 0 0 1.75 3M21 14.5a5.5 5.5 0 1 1-11 0 5.5 5.5 0 0 1 11 0M16 11a.5.5 0 0 0-1 0v3h-3a.5.5 0 0 0 0 1h3v3a.5.5 0 0 0 1 0v-3h3a.5.5 0 0 0 0-1h-3z" fill="#6366F1"/></svg>